<svg id="Layer_3" data-name="Layer 3" xmlns="http://www.w3.org/2000/svg" viewBox="0 0 128 128"><defs><style>.cls-1{fill:#fff;}</style></defs><path class="cls-1" d="M64.18,125C48.64,124,36,96.65,36,64S48.64,4,64.18,3l.45,0H65a61,61,0,0,1,42.5,103.79A60.61,60.61,0,0,1,65,125h-.43Z"/><path d="M64.47,126.48l-.39,0c-16.31-1-29.58-29-29.58-62.45S47.78,2.55,64.09,1.55l.52,0H65a62.47,62.47,0,0,1,43.52,106.33A62.09,62.09,0,0,1,65,126.47Zm.19-122-.38,0C49.76,5.44,37.5,32.66,37.5,64s12.26,58.57,26.78,59.46l.29,0h.36a59.48,59.48,0,0,0,0-118.95Z"/><path d="M48.24,122.94a61,61,0,0,1,0-117.88C37.32,16.37,30,38.47,30,64S37.32,111.63,48.24,122.94Z"/><path d="M53.07,125.78l-5.22-1.4a62.5,62.5,0,0,1,0-120.76l5.22-1.4L49.32,6.11C38.33,17.49,31.5,39.67,31.5,64s6.83,46.51,17.82,57.89ZM43.74,8.05a59.51,59.51,0,0,0,0,111.9C34.25,107.3,28.5,86.5,28.5,64S34.25,20.7,43.74,8.05Z"/></svg>