<svg id="Layer_3" data-name="Layer 3" xmlns="http://www.w3.org/2000/svg" viewBox="0 0 128 128"><defs><style>.cls-1{fill:#fff;}</style></defs><path class="cls-1" d="M81.32,122.5C92,111.12,99,89.43,99,64S92,16.87,81.32,5.5a61,61,0,0,1,0,117Z"/><path d="M76.45,125.5l3.78-4C90.88,110.08,97.5,88.06,97.5,64S90.88,17.92,80.23,6.53l-3.78-4,5.3,1.57a62.5,62.5,0,0,1,0,119.86ZM85.86,8.66C95.1,21.33,100.5,41.5,100.5,64s-5.4,42.67-14.64,55.34a59.5,59.5,0,0,0,0-110.68Z"/><path d="M64,125A61,61,0,0,1,64,3C79.72,3,93,30.93,93,64S79.72,125,64,125Z"/><path d="M64,126.5a62.5,62.5,0,0,1,0-125c8.21,0,15.94,6.73,21.75,19C91.39,32.33,94.5,47.79,94.5,64s-3.11,31.67-8.75,43.54C79.94,119.77,72.21,126.5,64,126.5Zm0-122a59.5,59.5,0,0,0,0,119c14.65,0,27.5-27.8,27.5-59.5S78.65,4.5,64,4.5Z"/></svg>