<svg id="Layer_3" data-name="Layer 3" xmlns="http://www.w3.org/2000/svg" viewBox="0 0 128 128"><defs><style>.cls-1{fill:#fff;}</style></defs><path class="cls-1" d="M69.73,124.73a85.51,85.51,0,0,0,2.9-15.1A387.17,387.17,0,0,0,75,64a387,387,0,0,0-2.37-45.63,85.71,85.71,0,0,0-2.9-15.1,61,61,0,0,1,0,121.46Z"/><path d="M67.59,126.44l.71-2.17a84.11,84.11,0,0,0,2.85-14.83A388.49,388.49,0,0,0,73.5,64a388.49,388.49,0,0,0-2.35-45.44A84.11,84.11,0,0,0,68.3,3.73l-.71-2.17,2.28.21a62.51,62.51,0,0,1,0,124.46ZM71.8,5a105.24,105.24,0,0,1,2.32,13.18A388.07,388.07,0,0,1,76.5,64a388.07,388.07,0,0,1-2.38,45.81A105.24,105.24,0,0,1,71.8,123a60,60,0,0,0,51.7-59A60,60,0,0,0,71.8,5Z"/><path d="M63.17,125a61,61,0,0,1,0-122C65.71,7.06,69,29.51,69,64S65.71,120.94,63.17,125Z"/><path d="M64,126.5h-.85a62.5,62.5,0,0,1,0-125l.85,0,.44.72C67.38,6.9,70.5,30.16,70.5,64s-3.12,57.1-6.06,61.79Zm-1.73-122a59.5,59.5,0,0,0,0,119C64.5,118.26,67.5,97.11,67.5,64S64.5,9.74,62.27,4.52Z"/></svg>