<svg id="Layer_3" data-name="Layer 3" xmlns="http://www.w3.org/2000/svg" viewBox="0 0 128 128"><defs><style>.cls-1{fill:#fff;}</style></defs><path class="cls-1" d="M65.82,125C63.29,120.86,60,98.43,60,64S63.28,7.14,65.82,3a61,61,0,0,1,41.63,103.77A60.65,60.65,0,0,1,65.82,125Z"/><path d="M65,126.48l-.46-.73c-2.93-4.74-6-28-6-61.75s3.11-57,6-61.74L65,1.52l.86,0a62.49,62.49,0,0,1,0,124.92ZM66.72,4.58C64.49,9.85,61.5,31,61.5,64s3,54.15,5.22,59.42a59.48,59.48,0,0,0,0-118.84Z"/><path d="M59.38,124.83a61,61,0,0,1,0-121.66C55.2,15.63,54,45.77,54,64S55.2,112.37,59.38,124.83Z"/><path d="M61.52,126.49l-2.26-.17a62.5,62.5,0,0,1,0-124.64l2.26-.17L60.8,3.65C56.89,15.31,55.5,43.45,55.5,64s1.39,48.69,5.3,60.35ZM57.3,4.88a59.5,59.5,0,0,0,0,118.25c-3.53-13-4.8-39.52-4.8-59.13S53.77,17.88,57.3,4.88Z"/></svg>