<svg id="Layer_3" data-name="Layer 3" xmlns="http://www.w3.org/2000/svg" viewBox="0 0 128 128"><defs><style>.cls-1{fill:#fff;}</style></defs><path class="cls-1" d="M64.33,125C54.51,123.88,44,99.13,44,64S54.51,4.12,64.33,3.05l.29,0H65a61,61,0,0,1,42.5,103.79A60.61,60.61,0,0,1,65,125h-.4Z"/><path d="M64.47,126.48l-.33,0C52.21,125.1,42.5,97.1,42.5,64S52.22,2.87,64.16,1.56l.4,0H65a62.47,62.47,0,0,1,43.52,106.33A62.09,62.09,0,0,1,65,126.47Zm.22-122-.2,0c-7.76.85-19,22.51-19,59.46s11.23,58.61,19,59.46l.15,0h.29a59.48,59.48,0,0,0,0-118.95Z"/><path d="M52.66,123.94a61,61,0,0,1,0-119.88C43.84,15,38,37.42,38,64S43.84,113.05,52.66,123.94Z"/><path d="M56.4,126.17l-4-.75a62.51,62.51,0,0,1,0-122.84l4-.75L53.82,5C45,15.91,39.5,38.52,39.5,64S45,112.09,53.82,123ZM49.15,6.37a59.52,59.52,0,0,0,0,115.26C41.29,109.37,36.5,87.85,36.5,64S41.29,18.63,49.15,6.37Z"/></svg>