<svg id="Layer_3" data-name="Layer 3" xmlns="http://www.w3.org/2000/svg" viewBox="0 0 128 128"><defs><style>.cls-1{fill:#fff;}</style></defs><path class="cls-1" d="M76.68,123.67C85.34,112.78,91,90.68,91,64S85.34,15.22,76.68,4.32a61,61,0,0,1,0,119.35Z"/><path d="M72.91,126l2.59-3.27c8.64-10.86,14-33.37,14-58.74s-5.36-47.88-14-58.74L72.91,2,77,2.86a62.51,62.51,0,0,1,0,122.28ZM80.22,6.75C88,19,92.5,40,92.5,64S88,109,80.22,121.25a59.5,59.5,0,0,0,0-114.5Z"/><path d="M64,125A61,61,0,0,1,64,3c9.93,0,21,25.05,21,61S73.93,125,64,125Z"/><path d="M64,126.5a62.5,62.5,0,0,1,0-125C74.87,1.5,86.5,26.61,86.5,64S74.87,126.5,64,126.5Zm0-122a59.5,59.5,0,0,0,0,119c8.14,0,19.5-22.64,19.5-59.5S72.14,4.5,64,4.5Z"/></svg>