<svg id="Layer_3" data-name="Layer 3" xmlns="http://www.w3.org/2000/svg" viewBox="0 0 128 128"><defs><style>.cls-1{fill:#fff;}</style></defs><path class="cls-1" d="M115.51,96.64a74.86,74.86,0,0,0,0-65.28,60.88,60.88,0,0,1,0,65.28Z"/><path d="M116.78,97.45,114.17,96a73.43,73.43,0,0,0,0-64l2.61-1.46a62.4,62.4,0,0,1,0,66.89Z"/><path d="M64,125A61,61,0,0,1,64,3c29.22,0,53,27.36,53,61S93.22,125,64,125Z"/><path d="M64,126.5a62.5,62.5,0,0,1,0-125c30.05,0,54.5,28,54.5,62.5S94.05,126.5,64,126.5Zm0-122a59.5,59.5,0,0,0,0,119c28.4,0,51.5-26.69,51.5-59.5S92.4,4.5,64,4.5Z"/></svg>