<svg id="Layer_3" data-name="Layer 3" xmlns="http://www.w3.org/2000/svg" viewBox="0 0 128 128"><defs><style>.cls-1{fill:#fff;}</style></defs><path class="cls-1" d="M87.14,120.44C99.06,108.52,107,87.68,107,64S99.06,19.48,87.14,7.56a61,61,0,0,1,0,112.88Z"/><path d="M80.77,124.68l5.31-5.3c12.15-12.14,19.4-32.85,19.4-55.38S98.23,20.76,86.08,8.62l-5.31-5.3,6.94,2.85a62.5,62.5,0,0,1,0,115.66ZM93,12.06C102.8,25,108.48,43.81,108.48,64S102.8,103,93,115.94A59.49,59.49,0,0,0,93,12.06Z"/><path d="M64,125A61,61,0,0,1,64,3c20.39,0,37,27.36,37,61S84.39,125,64,125Z"/><path d="M64,126.5a62.5,62.5,0,0,1,0-125c21.22,0,38.48,28,38.48,62.5S85.22,126.5,64,126.5Zm0-122a59.5,59.5,0,0,0,0,119c19.56,0,35.48-26.69,35.48-59.5S83.56,4.5,64,4.5Z"/></svg>