<svg id="Layer_3" data-name="Layer 3" xmlns="http://www.w3.org/2000/svg" viewBox="0 0 128 128"><defs><style>.cls-1{fill:#fff;}</style></defs><path class="cls-1" d="M64.06,125C35.35,124.4,12,97,12,64S35.35,3.6,64.06,3H65a61,61,0,0,1,42.5,103.79A60.61,60.61,0,0,1,65,125h-.89Z"/><path d="M64.47,126.48H64C34.51,125.88,10.5,97.85,10.5,64S34.51,2.12,64,1.53h1a62.47,62.47,0,0,1,43.52,106.33A62.09,62.09,0,0,1,65,126.47Zm.11-122h-.49C36.2,5.09,13.5,31.77,13.5,64s22.7,58.91,50.59,59.47h.84a59.48,59.48,0,0,0,0-118.95Z"/><path d="M17.23,103.12a60.89,60.89,0,0,1,0-78.24,73.75,73.75,0,0,0,0,78.24Z"/><path d="M16.08,104.08a62.38,62.38,0,0,1,0-80.16l2.41,1.77A71,71,0,0,0,7.5,64a71,71,0,0,0,11,38.31Z"/></svg>