<svg id="Layer_3" data-name="Layer 3" xmlns="http://www.w3.org/2000/svg" viewBox="0 0 128 128"><defs><style>.cls-1{fill:#fff;}</style></defs><path class="cls-1" d="M64.08,125C39.78,124.3,20,97,20,64S39.78,3.7,64.08,3H65a61,61,0,0,1,42.5,103.79A60.61,60.61,0,0,1,65,125h-.87Z"/><path d="M64.48,126.48H64C38.93,125.78,18.5,97.76,18.5,64S38.93,2.22,64,1.53H65a62.47,62.47,0,0,1,43.52,106.33A62.09,62.09,0,0,1,65,126.47Zm.12-122h-.48C40.62,5.17,21.5,31.85,21.5,64s19.12,58.83,42.62,59.47h.81a59.48,59.48,0,0,0,0-118.95Z"/><path d="M33.68,116.92a61,61,0,0,1,0-105.84,59.71,59.71,0,0,0-5.36,6.34C19.08,30,14,46.5,14,64s5.08,34,14.32,46.58A58.73,58.73,0,0,0,33.68,116.92Z"/><path d="M42.31,123.61l-9.38-5.39a62.48,62.48,0,0,1,0-108.44l9.39-5.4-7.57,7.75a60,60,0,0,0-5.23,6.18c-9,12.28-14,28.51-14,45.69s5,33.41,14,45.69a60,60,0,0,0,5.23,6.18ZM25.72,18.48a59.42,59.42,0,0,0,0,91C17.18,97,12.5,80.92,12.5,64S17.18,31,25.72,18.48Z"/></svg>