<svg id="Layer_3" data-name="Layer 3" xmlns="http://www.w3.org/2000/svg" viewBox="0 0 128 128"><defs><style>.cls-1{fill:#fff;}</style></defs><path class="cls-1" d="M96.49,115.61C107.79,103.31,115,84.74,115,64s-7.21-39.31-18.51-51.61a61,61,0,0,1,0,103.22Z"/><path d="M87.75,122.91l7.63-8.31c11.52-12.54,18.12-31,18.12-50.6s-6.6-38.06-18.12-50.6L87.75,5.09l9.54,6a62.47,62.47,0,0,1,0,105.76ZM104.5,20.42c7.71,12.18,12,27.51,12,43.58s-4.29,31.4-12,43.58a59.48,59.48,0,0,0,0-87.16Z"/><path d="M64,125A61,61,0,0,1,64,3c24.81,0,45,27.36,45,61S88.81,125,64,125Z"/><path d="M64,126.5a62.5,62.5,0,0,1,0-125c25.64,0,46.5,28,46.5,62.5S89.64,126.5,64,126.5Zm0-122a59.5,59.5,0,0,0,0,119c24,0,43.5-26.69,43.5-59.5S88,4.5,64,4.5Z"/></svg>