<svg id="Layer_3" data-name="Layer 3" xmlns="http://www.w3.org/2000/svg" viewBox="0 0 128 128"><defs><style>.cls-1{fill:#fff;}</style></defs><path class="cls-1" d="M64.12,125c-19.88-.81-36.06-28.16-36.06-61S44.24,3.85,64.12,3l.54,0H65A61,61,0,0,1,107.46,106.8,60.65,60.65,0,0,1,65,125H64.5Z"/><path d="M64.48,126.48l-.43,0C43.37,125.61,26.56,97.59,26.56,64S43.38,2.39,64.06,1.54l.53,0H65a62.48,62.48,0,0,1,43.5,106.32A62.14,62.14,0,0,1,65,126.47Zm.14-122-.44,0C45.09,5.32,29.56,32,29.56,64s15.53,58.68,34.62,59.46l.35,0H65A59.47,59.47,0,0,0,106.39,22.26,59.12,59.12,0,0,0,65,4.53Z"/><path d="M42.32,121a61,61,0,0,1,0-114C30.09,18.75,22.06,39.8,22.06,64S30.09,109.25,42.32,121Z"/><path d="M48.66,125.05l-6.88-2.63a62.5,62.5,0,0,1,0-116.84L48.66,3l-5.3,5.11C31,20,23.56,40.91,23.56,64s7.4,44,19.8,55.94ZM36.44,11.28a59.48,59.48,0,0,0,0,105.44c-10-12.84-15.88-32-15.88-52.72S26.4,24.13,36.44,11.28Z"/></svg>